<svg xmlns="http://www.w3.org/2000/svg" width="845.12701" height="1000"><path d="M61.855 376.981C27.409 376.981 0 404.391 0 438.836v257.65c0 34.445 27.409 61.854 61.855 61.854s61.854-27.409 61.854-61.855V438.836c0-34.446-27.408-61.855-61.854-61.855zm721.417 0c-34.446 0-61.854 27.41-61.854 61.855v257.65c0 34.445 27.409 61.854 61.854 61.854 34.446 0 61.855-27.409 61.855-61.855V438.836c0-34.446-27.409-61.855-61.855-61.855zM319.502 671.004c-34.446 0-61.855 27.409-61.855 61.855v257.649c0 34.446 27.41 61.854 61.855 61.854 34.446 0 61.855-27.408 61.855-61.854v-257.65c0-34.445-27.41-61.854-61.855-61.854zm206.12 0c-34.447 0-61.856 27.409-61.856 61.855v257.649c0 34.446 27.41 61.854 61.855 61.854 34.446 0 61.855-27.408 61.855-61.854v-257.65c0-34.445-27.409-61.854-61.855-61.854z" style="fill:#79c257;fill-opacity:1;stroke:none;stroke-width:2.99069023" transform="translate(0 -52.362)"/><path d="M251.3 52.363c-1.462.014-2.824.392-4.167 1.136-4.41 2.445-5.861 7.514-3.41 11.935l43.573 78.716c-83.833 43.62-140.457 126.517-140.57 221.654h551.672c-.114-95.137-56.738-178.034-140.57-221.654L601.4 65.434c2.451-4.421 1.001-9.49-3.41-11.935-1.343-.744-2.705-1.123-4.168-1.136-3.13-.03-6.097 1.533-7.767 4.546l-44.141 79.568c-36.11-16.017-76.612-25.007-119.352-25.007-42.741 0-83.243 8.99-119.353 25.007L259.068 56.91c-1.67-3.013-4.637-4.576-7.767-4.546zM146.726 387.59v399.83c0 36.943 29.742 66.685 66.686 66.685h418.301c36.944 0 66.686-29.742 66.686-66.686V387.59Z" style="fill:#79c257;fill-opacity:1;stroke-width:2.99069023" transform="translate(0 -52.362)"/><path d="M295.252 218.792c-12.594 0-23.018 10.425-23.018 23.018 0 12.594 10.424 23.018 23.018 23.018 12.593 0 23.018-10.424 23.018-23.018 0-12.593-10.425-23.018-23.018-23.018zm254.618 0c-12.594 0-23.018 10.425-23.018 23.018 0 12.594 10.424 23.018 23.018 23.018 12.593 0 23.018-10.424 23.018-23.018 0-12.593-10.425-23.018-23.018-23.018z" style="color:#000;font-style:normal;font-variant:normal;font-weight:400;font-stretch:normal;font-size:medium;font-family:Sans;text-indent:0;text-decoration:none;text-decoration-line:none;letter-spacing:normal;word-spacing:normal;text-transform:none;writing-mode:lr-tb;direction:ltr;baseline-shift:baseline;text-anchor:start;display:inline;overflow:visible;visibility:visible;fill:#fff;fill-opacity:1;fill-rule:nonzero;stroke:none;stroke-width:21.53297043;enable-background:accumulate" transform="translate(0 -52.362)"/></svg>